<?xml version="1.0" encoding="UTF-8" standalone="no"?>
<svg
   xmlns:dc="http://purl.org/dc/elements/1.1/"
   xmlns:cc="http://creativecommons.org/ns#"
   xmlns:rdf="http://www.w3.org/1999/02/22-rdf-syntax-ns#"
   xmlns:svg="http://www.w3.org/2000/svg"
   xmlns="http://www.w3.org/2000/svg"
   xmlns:xlink="http://www.w3.org/1999/xlink"
   xmlns:sodipodi="http://sodipodi.sourceforge.net/DTD/sodipodi-0.dtd"
   xmlns:inkscape="http://www.inkscape.org/namespaces/inkscape"
   sodipodi:docname="logo.svg"
   inkscape:version="1.0 (4035a4fb49, 2020-05-01)"
   id="svg8"
   version="1.1"
   viewBox="0 0 140 140"
   height="140mm"
   width="140mm">
  <title
     id="title881">PG Reloaded By NNDI</title>
  <defs
     id="defs2">
    <inkscape:path-effect
       overflow_perspective="false"
       vertical_mirror="false"
       horizontal_mirror="false"
       deform_type="perspective"
       lpeversion="1"
       is_visible="true"
       id="path-effect873"
       down_right_point="180.63909,114.95567"
       down_left_point="48.106828,118.82831"
       up_right_point="184.82281,110.15831"
       up_left_point="45.102804,100.85831"
       effect="perspective-envelope" />
    <linearGradient
       id="linearGradient859"
       inkscape:collect="always">
      <stop
         id="stop855"
         offset="0"
         style="stop-color:#3f347a;stop-opacity:1" />
      <stop
         id="stop857"
         offset="1"
         style="stop-color:#000000;stop-opacity:0;" />
    </linearGradient>
    <linearGradient
       gradientTransform="matrix(1.3331483,0,0,0.90952079,-40.985687,1.1908684)"
       gradientUnits="userSpaceOnUse"
       y2="132.95642"
       x2="138.33307"
       y1="103.07876"
       x1="121.93422"
       id="linearGradient863"
       xlink:href="#linearGradient859"
       inkscape:collect="always" />
  </defs>
  <sodipodi:namedview
     fit-margin-bottom="0"
     fit-margin-right="0"
     fit-margin-left="0"
     fit-margin-top="0"
     showgrid="false"
     inkscape:document-rotation="0"
     inkscape:current-layer="layer1"
     inkscape:document-units="mm"
     inkscape:cy="215.10242"
     inkscape:cx="254.37989"
     inkscape:zoom="0.7"
     inkscape:pageshadow="2"
     inkscape:pageopacity="0.0"
     borderopacity="1.0"
     bordercolor="#666666"
     pagecolor="#ffffff"
     id="base" />
  <metadata
     id="metadata5">
    <rdf:RDF>
      <cc:Work
         rdf:about="">
        <dc:format>image/svg+xml</dc:format>
        <dc:type
           rdf:resource="http://purl.org/dc/dcmitype/StillImage" />
        <dc:title>PG Reloaded By NNDI</dc:title>
      </cc:Work>
    </rdf:RDF>
  </metadata>
  <g
     transform="translate(-46.192955,-56.879408)"
     id="layer1"
     inkscape:groupmode="layer"
     inkscape:label="Layer 1">
    <g
       transform="translate(1.4452673,30.08566)"
       id="g879">
      <path
         style="fill:none;fill-opacity:1;stroke:url(#linearGradient863);stroke-width:1.01415;stroke-miterlimit:4;stroke-dasharray:none"
         id="path847"
         inkscape:path-effect="#path-effect873"
         sodipodi:type="arc"
         sodipodi:cx="114.36543"
         sodipodi:cy="106.44763"
         sodipodi:rx="66.273651"
         sodipodi:ry="8.5080509"
         d="m 182.69251,112.60106 c -1.14331,1.31101 -12.14105,2.64937 -31.49907,3.21502 -36.49918,1.06652 -103.691231,-0.60458 -104.487352,-5.36697 -0.857706,-5.13077 72.025432,-4.68995 109.382742,-2.20338 19.02574,1.26638 27.77044,3.01745 26.60368,4.35533 z" />
      <path
         style="fill:#3f347a;fill-opacity:1;stroke-width:0.547889"
         d="m 145.4781,118.24887 c -96.9854,-78.83258 -48.4927,-39.41629 0,0 z m -33.28432,-3.03494 c -1.80939,-0.38183 -2.55637,-1.83735 -1.38463,-2.69801 0.58135,-0.42701 0.7738,-1.36649 0.65251,-3.18541 -0.0946,-1.41888 0.0715,-2.73031 0.3692,-2.91428 0.29768,-0.18397 0.39938,-0.56401 0.22601,-0.84453 -0.17337,-0.28051 -0.0541,-0.51003 0.26501,-0.51003 0.31912,0 0.52959,-0.18491 0.46771,-0.41091 -0.0619,-0.22601 0.70664,-2.13677 1.70783,-4.24614 4.48751,-9.454575 6.62791,-20.545835 3.96495,-20.545835 -0.6811,0 -1.17716,0.34632 -1.17716,0.82183 0,0.45201 -0.2611,0.82184 -0.58022,0.82184 -0.31912,0 -0.40195,-0.28845 -0.18406,-0.641 0.27009,-0.43702 0.0918,-0.5242 -0.56037,-0.27394 -0.52609,0.20187 -1.25683,0.36705 -1.62388,0.36705 -1.06544,0 -5.2698,2.91721 -5.2698,3.65647 0,0.36971 -0.33051,0.86935 -0.73446,1.11033 -1.08013,0.64435 -1.41511,2.59818 -0.84783,4.94508 0.27489,1.13725 0.51015,4.62643 0.52281,7.75372 0.0126,3.127285 0.22084,6.744945 0.46264,8.039235 0.44986,2.40803 0.25682,3.16822 -0.85806,3.37904 -0.3936,0.0744 -0.75629,-1.11729 -0.95881,-3.15036 -1.05024,-10.543375 -1.09859,-10.659525 -1.47529,-3.54402 -0.43003,8.12277 -1.66609,12.63137 -3.20031,11.67323 -0.92391,-0.57699 -0.94576,-0.75974 -0.2228,-1.86313 0.59459,-0.90746 0.76541,-2.61505 0.6615,-6.61252 -0.29946,-11.519335 0.0164,-20.902475 0.71818,-21.336225 0.25108,-0.15517 0.20062,-0.76027 -0.11214,-1.34466 -0.44276,-0.8273 -0.39048,-1.06253 0.23618,-1.06253 0.55945,0 0.7291,-0.41759 0.55645,-1.36972 -0.13661,-0.75335 0.008,-1.36972 0.32094,-1.36972 0.31312,0 0.45827,-0.61237 0.32256,-1.36081 -0.13572,-0.74845 -0.0391,-1.48916 0.21472,-1.64603 0.25382,-0.15686 0.39632,-0.87886 0.31667,-1.60444 -0.11099,-1.01113 0.0603,-1.24254 0.73337,-0.99084 0.74138,0.27724 0.76793,0.19269 0.17045,-0.54274 -0.45945,-0.56553 -0.5056,-0.93851 -0.13154,-1.0632 0.3169,-0.10563 0.68928,-0.77934 0.82752,-1.49714 0.32576,-1.69155 0.82754,-2.18287 0.85503,-0.8372 0.0145,0.71233 0.2704,0.47735 0.79538,-0.73052 0.53969,-1.24169 1.15507,-1.79229 2.03314,-1.81915 1.13891,-0.0348 1.15863,-0.0779 0.20647,-0.45103 -0.99682,-0.39062 -0.98227,-0.46267 0.27394,-1.35665 1.26006,-0.89671 1.27523,-0.97356 0.30214,-1.53059 -0.63787,-0.36513 -0.80387,-0.72285 -0.43984,-0.94783 0.37533,-0.23197 0.40187,-0.65047 0.0741,-1.16874 -0.42887,-0.67816 -0.51193,-0.65393 -0.51897,0.15143 -0.004,0.52735 -0.26949,0.95881 -0.58862,0.95881 -0.31912,0 -0.42784,0.24655 -0.24161,0.54789 0.18624,0.30134 0.0775,0.54789 -0.2416,0.54789 -0.7322,0 -0.72727,-0.0883 0.1112,-1.99168 0.68217,-1.54859 2.04802,-2.39111 2.04802,-1.26332 0,0.31912 0.26295,0.41771 0.58434,0.21908 0.32139,-0.19863 0.9155,0.0917 1.32024,0.64525 0.7138,0.9762 0.76922,0.97623 1.84663,10e-4 0.61091,-0.55287 1.37,-0.84498 1.68687,-0.64914 0.35776,0.22111 0.44327,0.01 0.22559,-0.55744 -0.28993,-0.75556 -0.1238,-0.84155 0.96079,-0.49731 1.17139,0.37178 1.23154,0.32006 0.56368,-0.48467 -0.66066,-0.79606 -0.58424,-0.90087 0.65683,-0.90087 0.77245,0 1.55684,-0.24655 1.74308,-0.54789 0.18624,-0.30134 0.83171,-0.54789 1.43439,-0.54789 0.60268,0 0.94341,0.24655 0.75717,0.54789 -0.18624,0.30134 0.0603,0.54789 0.54789,0.54789 0.48757,0 0.73412,-0.24655 0.54789,-0.54789 -0.71828,-1.16219 6.02909,-0.89779 7.20938,0.28249 0.4473,0.44731 1.3504,0.81706 2.00689,0.82168 0.9025,0.006 1.00742,0.12629 0.43019,0.4918 -0.44711,0.28312 -0.63868,0.96045 -0.46235,1.63474 0.16559,0.63322 0.0777,1.28938 -0.19538,1.45813 -0.27305,0.16876 -0.49645,0.0535 -0.49645,-0.2562 0,-0.30967 -0.36983,-0.42111 -0.82184,-0.24766 -0.5204,0.1997 -0.82183,-0.008 -0.82183,-0.56509 0,-1.0382 -0.24767,-1.07967 -1.72527,-0.28889 -0.86655,0.46377 -1.3322,0.38625 -2.15553,-0.35886 -1.27537,-1.1542 -1.60977,0.59983 -0.36534,1.91635 0.56452,0.59722 0.47458,0.61647 -0.51187,0.10957 -1.65299,-0.84941 -1.82281,-0.79025 -1.7734,0.6178 0.0238,0.67801 0.16761,0.92456 0.3196,0.54789 0.37205,-0.92204 1.28081,-0.87245 1.28081,0.0699 0,1.07518 1.44994,2.19353 1.89992,1.46543 0.38107,-0.61657 3.54197,0.73663 4.23404,1.8126 0.38854,0.60408 1.20712,0.11756 1.33103,-0.7911 0.0377,-0.27622 0.0993,-0.74878 0.13697,-1.05012 0.0376,-0.30134 0.41193,-0.54789 0.8317,-0.54789 0.41977,0 0.92344,-0.41754 1.11927,-0.92787 0.40105,-1.04511 3.04019,1.2726 3.0569,2.6846 0.006,0.52652 0.13586,0.50736 0.50408,-0.0745 0.80068,-1.26523 2.22698,-1.19181 2.22698,0.11464 0,1.13346 0.014,1.13489 0.86656,0.0885 0.82915,-1.01761 0.85226,-1.01878 0.53535,-0.0272 -0.25137,0.78647 -0.16308,0.90249 0.36619,0.48128 0.38357,-0.30526 1.18851,-0.47647 1.78876,-0.38047 0.60025,0.096 1.68757,-0.36712 2.41626,-1.02917 1.00161,-0.91 1.24518,-0.98105 0.99818,-0.29119 -0.27872,0.77844 0.0908,0.90793 2.51474,0.88123 5.12493,-0.0565 6.21941,0.0821 5.30696,0.67174 -0.45201,0.29211 -0.58761,0.53489 -0.30134,0.5395 0.28628,0.005 0.22464,0.30425 -0.13697,0.66586 -0.97732,0.97732 -0.79963,1.53409 0.48961,1.53409 0.68629,0 1.26217,0.44017 1.43362,1.09577 0.35345,1.3516 1.08885,1.4223 1.42474,0.13698 0.23157,-0.88611 0.25538,-0.88365 0.31412,0.0323 0.0378,0.58866 0.31491,0.8358 0.68252,0.6086 0.37909,-0.23429 0.5118,-0.0876 0.34243,0.37858 -0.15209,0.41862 -0.54503,0.70245 -0.87319,0.63073 -0.33399,-0.073 -0.45117,0.24873 -0.26618,0.7308 0.24657,0.64255 0.43618,0.69016 0.74682,0.18753 0.22899,-0.37051 0.81105,-0.5222 1.29348,-0.33708 0.48241,0.18513 0.87712,0.15155 0.87712,-0.0746 0,-0.81305 2.7776,-0.64038 3.09722,0.19253 0.20644,0.53798 0.6991,0.71324 1.38923,0.4942 0.79365,-0.2519 1.14965,-0.0323 1.38085,0.85182 0.23516,0.89925 0.42511,1.01201 0.77499,0.46004 0.32854,-0.51828 0.46593,-0.35271 0.47188,0.56866 0.007,1.0565 0.15311,1.17973 0.78144,0.65826 0.93345,-0.77469 1.57441,0.0115 1.07354,1.31676 -0.19169,0.49953 -0.0856,1.44634 0.23583,2.10402 0.32139,0.65769 0.73956,2.5962 0.92926,4.30781 0.18971,1.71161 0.71262,3.41719 1.16203,3.79016 0.44941,0.37298 1.08608,1.19152 1.41482,1.81899 0.58124,1.10942 0.56719,1.11378 -0.51011,0.15838 -3.40943,-3.02365 -1.78781,6.6378 2.65368,15.810335 0.59295,1.22455 0.92606,2.62259 0.74027,3.10677 0.029,1.38397 -0.59647,1.44079 -0.59647,1.44079 -1.54436,0.041 -3.61583,0.38508 -4.64424,0.44188 -1.4646,0.0809 -0.87409,-0.37403 -0.91884,-1.03298 -0.0624,-0.91862 0.78546,-1.53227 0.6241,-1.69363 -0.16136,-0.16135 -0.98314,-2.28536 -1.82618,-4.71999 -2.64749,-7.645795 -6.60325,-11.677245 -8.96133,-9.132815 -1.98948,2.14667 -3.31783,7.847835 -2.95287,12.673415 0.37007,4.89331 0.10623,5.19971 -4.81801,5.59498 -3.87459,0.31102 -4.01757,0.11699 -2.12077,-2.87808 1.7152,-2.70831 2.39779,-12.606665 1.02913,-14.923625 -0.87718,-1.48494 -3.80121,-3.13621 -4.63789,-2.61912 -0.20385,0.12599 -2.03315,-0.006 -4.06511,-0.29413 -5.5304,-0.7832 -5.57257,-0.70659 -5.4017,9.814085 0.10457,6.43894 0.33637,8.79484 0.9588,9.74479 0.45149,0.68906 0.43085,1.88557 0.82089,2.33556 0.38498,0.44415 -0.93635,0.86363 -1.51179,0.98343 -1.25633,-0.009 -4.25148,0.88245 -5.22682,-0.44202 -0.50197,-0.69671 2.80634,-1.49492 1.98665,-2.05775 -1.21348,-0.83322 -2.86782,-7.0066 -4.23088,-15.788045 -1.09042,-7.02492 -1.58823,-7.74413 -3.0308,-4.37873 -0.7602,1.77348 -2.67025,4.1472 -5.79727,7.204607 -5.70247,5.575508 -7.59132,9.125778 -7.30453,13.729468 0.10257,1.64654 0.056,1.50861 0.056,1.49048 0,0 -1.77508,0.41676 -3.04326,0.1485 z m -5.31846,-37.820645 c 0,-0.15067 -0.12327,-0.27395 -0.27394,-0.27395 -0.15067,0 -0.27395,0.12328 -0.27395,0.27395 0,0.15067 0.12328,0.27394 0.27395,0.27394 0.15067,0 0.27394,-0.12327 0.27394,-0.27394 z m 20.81979,0 c 0,-0.15067 -0.12328,-0.27395 -0.27395,-0.27395 -0.15067,0 -0.27394,0.12328 -0.27394,0.27395 0,0.15067 0.12327,0.27394 0.27394,0.27394 0.15067,0 0.27395,-0.12327 0.27395,-0.27394 z m -6.20941,-0.63921 c -0.2009,-0.20089 -0.52963,-0.20089 -0.73052,0 -0.20089,0.2009 -0.0365,0.36526 0.36526,0.36526 0.40178,0 0.56615,-0.16436 0.36526,-0.36526 z m 46.2053,-0.45657 c 0,-0.15067 -0.12327,-0.27394 -0.27394,-0.27394 -0.15067,0 -0.27395,0.12327 -0.27395,0.27394 0,0.15067 0.12328,0.27395 0.27395,0.27395 0.15067,0 0.27394,-0.12328 0.27394,-0.27395 z m -38.35223,-1.09578 c 0,-0.15067 -0.12327,-0.27394 -0.27394,-0.27394 -0.15067,0 -0.27395,0.12327 -0.27395,0.27394 0,0.15067 0.12328,0.27395 0.27395,0.27395 0.15067,0 0.27394,-0.12328 0.27394,-0.27395 z m 31.59494,-0.6392 c -0.2009,-0.20089 -0.36526,-0.0365 -0.36526,0.36526 0,0.40178 0.16436,0.56615 0.36526,0.36526 0.20089,-0.20089 0.20089,-0.52963 0,-0.73052 z m -21.73294,0.12365 c 0,-0.13289 -0.28464,-0.41753 -0.63254,-0.63254 -0.3919,-0.24221 -0.48382,-0.1503 -0.24161,0.24161 0.39034,0.63158 0.87415,0.84794 0.87415,0.39093 z m -31.77756,-2.22389 c 0,-0.15067 -0.12327,-0.27395 -0.27394,-0.27395 -0.15067,0 -0.27395,0.12328 -0.27395,0.27395 0,0.15067 0.12328,0.27394 0.27395,0.27394 0.15067,0 0.27394,-0.12327 0.27394,-0.27394 z m 27.18359,-0.93925 c 1.79662,-1.379 3.50662,-3.17936 3.48077,-3.66467 -0.0362,-0.6797 -1.49862,-2.2447 -2.09756,-2.2447 -0.84765,0 -0.79764,2.59041 0.0555,2.87479 0.7097,0.23657 0.26442,0.81716 -1.9939,2.59981 -0.95453,0.75348 -1.00747,0.72863 -0.67557,-0.31708 0.31702,-0.99884 0.17033,-1.10675 -1.22581,-0.90184 -0.87226,0.12802 -1.7463,-0.0267 -1.9423,-0.34386 -0.196,-0.31714 -0.7183,-0.43774 -1.16066,-0.26799 -1.22017,0.46822 -0.96166,1.10579 0.42846,1.05673 0.85214,-0.0301 1.20926,0.25254 1.15666,0.91531 -0.0419,0.52734 0.14306,0.9588 0.41091,0.9588 0.26786,0 0.48702,-0.36982 0.48702,-0.82183 0,-0.45201 0.2753,-0.82183 0.61179,-0.82183 0.34204,0 0.48544,0.48313 0.32524,1.09577 -0.36992,1.41456 0.18309,1.38421 2.13944,-0.11741 z m 0.21086,-2.89598 c 0,-0.15067 -0.12327,-0.27394 -0.27394,-0.27394 -0.15067,0 -0.27395,0.12327 -0.27395,0.27394 0,0.15067 0.12328,0.27395 0.27395,0.27395 0.15067,0 0.27394,-0.12328 0.27394,-0.27395 z m -15.88878,-0.54788 c 0,-0.15067 -0.12327,-0.27395 -0.27394,-0.27395 -0.15067,0 -0.27395,0.12328 -0.27395,0.27395 0,0.15066 0.12328,0.27394 0.27395,0.27394 0.15067,0 0.27394,-0.12328 0.27394,-0.27394 z m -6.02678,-0.82184 c 0,-0.30134 -0.2611,-0.54789 -0.58022,-0.54789 -0.31913,0 -0.42785,0.24655 -0.24161,0.54789 0.18624,0.30134 0.44734,0.54789 0.58022,0.54789 0.13289,0 0.24161,-0.24655 0.24161,-0.54789 z m 2.19156,0.30628 c 0,-0.13288 -0.24655,-0.39398 -0.54789,-0.58022 -0.30134,-0.18624 -0.54789,-0.0775 -0.54789,0.24161 0,0.31912 0.24655,0.58022 0.54789,0.58022 0.30134,0 0.54789,-0.10872 0.54789,-0.24161 z m 8.76622,-0.0323 c 0,-0.15067 -0.12327,-0.27395 -0.27394,-0.27395 -0.15067,0 -0.27395,0.12328 -0.27395,0.27395 0,0.15067 0.12328,0.27394 0.27395,0.27394 0.15067,0 0.27394,-0.12327 0.27394,-0.27394 z m 16.25404,-0.63921 c -0.20089,-0.20089 -0.36526,-0.0365 -0.36526,0.36526 0,0.40179 0.16437,0.56615 0.36526,0.36526 0.20089,-0.20089 0.20089,-0.52962 0,-0.73052 z m -13.69722,0 c -0.2009,-0.20089 -0.52963,-0.20089 -0.73052,0 -0.20089,0.2009 -0.0365,0.36526 0.36526,0.36526 0.40178,0 0.56615,-0.16436 0.36526,-0.36526 z m -1.64367,-1.09578 c -0.20089,-0.20089 -0.36526,-0.0365 -0.36526,0.36526 0,0.40179 0.16437,0.56616 0.36526,0.36526 0.20089,-0.20089 0.20089,-0.52962 0,-0.73052 z m -10.77515,-2.10024 c 0,-0.15067 -0.12328,-0.27394 -0.27394,-0.27394 -0.15067,0 -0.27395,0.12327 -0.27395,0.27394 0,0.15067 0.12328,0.27395 0.27395,0.27395 0.15066,0 0.27394,-0.12328 0.27394,-0.27395 z m 6.84861,-1.91761 c 0.18624,-0.30134 0.0775,-0.54789 -0.24161,-0.54789 -0.31912,0 -0.58022,0.24655 -0.58022,0.54789 0,0.30134 0.10872,0.54789 0.24161,0.54789 0.13288,0 0.39398,-0.24655 0.58022,-0.54789 z m 9.22073,-2.31999 c 0.30181,-1.19756 0.28483,-1.20382 -0.48176,-0.17776 -0.43701,0.58493 -0.79458,0.76985 -0.79458,0.41091 0,-0.35893 -0.55473,-0.64712 -1.23275,-0.64042 -1.23275,0.0122 -1.23275,0.0122 0.12166,1.05293 1.55349,1.19372 1.95096,1.08622 2.38743,-0.64566 z m 1.79413,0.27682 c -0.55694,-0.55694 -1.01647,0.28156 -0.55952,1.02093 0.34519,0.55853 0.47424,0.55896 0.65982,0.002 0.12689,-0.38067 0.0817,-0.84108 -0.1003,-1.02314 z M 53.319176,110.5466 c -1.999384,-1.21905 -2.31276,-2.4785 -0.720316,-2.89493 0.738078,-0.19301 0.974446,-0.60567 0.777753,-1.35783 -0.177846,-0.68008 0.217757,-1.62041 1.067418,-2.53721 1.794835,-1.93666 2.560523,-5.129125 1.978012,-8.247155 -0.419483,-2.24538 -0.866203,-3.26922 -3.09479,-7.09296 -2.414319,-4.1424 2.035363,-16.26363 5.954245,-16.21976 0.58536,0.007 0.569493,0.1246 -0.07251,0.5395 -0.730518,0.4721 -0.730518,0.5342 0,0.55892 0.507845,0.0172 0.322572,0.30454 -0.484937,0.75214 -0.901464,0.49968 -1.102294,0.85071 -0.647509,1.13178 0.362593,0.2241 0.526915,0.75233 0.365159,1.17386 -0.169696,0.44222 0.04626,0.76641 0.510538,0.76641 0.981584,0 1.065668,0.89914 0.119777,1.28082 -0.484839,0.19563 -0.454254,0.28898 0.104718,0.3196 0.584793,0.032 0.513743,0.26695 -0.273945,0.90575 -1.036907,0.84091 -1.032671,0.85591 0.169227,0.59918 0.837374,-0.17886 1.23275,-0.006 1.23275,0.53956 0,0.46737 -0.26433,0.63951 -0.632542,0.41194 -0.354529,-0.21911 -0.485129,-0.15241 -0.297143,0.15176 0.18447,0.29848 0.900577,0.48039 1.591349,0.40426 0.690771,-0.0761 1.467238,-0.15898 1.725482,-0.1841 0.258245,-0.0251 0.32762,-0.41548 0.154168,-0.86749 -0.173452,-0.45201 -0.07655,-0.82183 0.215326,-0.82183 0.291882,0 0.530694,0.22347 0.530694,0.4966 0,0.79724 2.083942,0.0262 2.440497,-0.90295 0.391352,-1.01985 -0.152119,-1.72137 -0.689648,-0.89021 -0.268035,0.41446 -0.950139,0.38147 -2.298738,-0.11115 -1.057566,-0.38632 -1.47103,-0.71918 -0.921885,-0.74216 0.740306,-0.031 0.906513,-0.32277 0.647941,-1.13746 -0.250475,-0.78918 -0.09846,-1.09578 0.543302,-1.09578 0.490099,0 0.734938,0.25266 0.544086,0.56146 -0.190852,0.30881 -0.02049,0.49372 0.378582,0.41092 0.999933,-0.20747 1.532021,-1.70214 0.787775,-2.21291 -0.335543,-0.23028 0.437759,-0.26041 1.71845,-0.067 2.149747,0.32474 2.328528,0.25774 2.328528,-0.87267 0,-0.91869 0.228471,-1.13675 0.915002,-0.8733 0.503251,0.19311 1.102687,0.0474 1.332078,-0.32373 0.277412,-0.44886 0.538689,-0.1903 0.780245,0.77214 0.489127,1.94884 -0.02696,2.60504 -2.048798,2.60504 -1.570956,0 -1.634058,0.0708 -0.854303,0.9588 0.46307,0.52735 0.993767,1.45926 1.179327,2.07093 0.488717,1.61096 3.604867,2.75509 3.190755,1.17152 -0.260665,-0.99678 -0.196231,-1.03656 0.549958,-0.33951 0.464868,0.43425 0.729575,1.16067 0.588237,1.61426 -0.215883,0.69284 -0.169048,0.70099 0.292873,0.051 0.465025,-0.65436 0.698012,-0.62556 1.510248,0.18668 1.460961,1.46096 4.694692,-1.92379 3.305016,-3.45937 -0.48325,-0.53399 -0.878636,-1.38293 -0.878636,-1.88655 0,-0.54112 -0.434987,-0.91566 -1.063443,-0.91566 -1.066709,0 -2.029409,-0.925 -1.506706,-1.44771 0.490741,-0.49074 4.231554,-0.61051 4.519442,-0.1447 0.152546,0.24683 0.642424,0.30868 1.08862,0.13746 0.446195,-0.17122 1.218044,0.0245 1.715219,0.43485 0.709606,0.58573 0.953757,0.59818 1.135597,0.0579 0.127402,-0.37855 0.457133,-0.54891 0.732734,-0.37858 0.275602,0.17033 0.50487,-0.13632 0.509484,-0.68145 0.0065,-0.76504 0.115838,-0.82156 0.479403,-0.24779 0.328345,0.5182 0.584527,0.55969 0.84578,0.13698 0.206121,-0.33351 0.222388,-0.85294 0.03615,-1.15428 -0.186238,-0.30133 -0.07752,-0.54788 0.241609,-0.54788 0.319123,0 0.580225,0.7542 0.580225,1.676 0,0.9218 0.21852,1.54095 0.485599,1.37588 0.26708,-0.16506 0.621745,0.2205 0.788139,0.8568 0.261315,0.99927 0.568418,1.10703 2.253845,0.79084 1.225469,-0.2299 1.951307,-0.15303 1.951307,0.20665 0,0.31499 0.378498,0.57272 0.841108,0.57272 0.65996,0 0.719735,-0.2268 0.277533,-1.05306 -1.106297,-2.06714 -2.262507,-2.87643 -3.107538,-2.17512 -0.944895,0.7842 -1.572381,0.24888 -1.572381,-1.34142 0,-2.52443 2.685083,-3.25148 5.253603,-1.42254 0.873143,0.62173 1.818729,0.98754 2.101302,0.8129 0.282574,-0.17464 0.669044,-0.0663 0.858822,0.24078 0.231603,0.37474 0.717312,0.35908 1.477256,-0.0476 1.259529,-0.67408 2.305679,0.25506 1.808929,1.60659 -0.1475,0.40132 -0.26819,1.10952 -0.26819,1.57378 0,0.69415 -0.14835,0.72099 -0.83507,0.15106 -1.1743,-0.97458 -1.757725,-0.15544 -0.666505,0.93578 0.780175,0.78017 1.022525,0.79651 1.837675,0.12392 0.86651,-0.71497 0.91333,-0.60561 0.60656,1.41679 -0.18283,1.20536 -0.50051,3.96811 -0.70594,6.13946 -0.37351,3.94791 -0.37351,3.94791 -2.137471,2.60248 -0.970174,-0.73999 -2.151982,-1.34544 -2.626235,-1.34544 -1.593031,0 -2.595569,-0.65751 -2.595569,-1.70228 0,-0.9892 -0.04657,-0.99282 -1.006883,-0.0784 -0.553784,0.52734 -1.409729,1.20536 -1.902095,1.5067 -3.193486,1.95448 -3.097398,22.505475 0.114004,24.382745 0.75692,0.44247 0.726934,0.52045 -0.218416,0.56805 -1.095778,0.0552 -1.095778,0.0552 0,0.52604 0.96566,0.41496 0.914016,0.47544 -0.434936,0.50937 -1.14906,0.0289 -1.49057,-0.1934 -1.369722,-0.89165 0.114569,-0.66195 -0.549927,-1.19572 -2.304509,-1.85112 -2.4655,-0.92096 -2.4655,-0.92096 -2.739445,-4.51954 -0.284428,-3.736298 -2.358312,-6.949575 -5.033273,-7.798585 -0.545028,-0.17298 -1.141536,-0.91446 -1.325573,-1.64772 -0.390165,-1.55454 -0.494601,-1.57285 -3.308351,-0.5801 -1.173985,0.41421 -3.434188,0.93185 -5.022673,1.15032 -6.467304,0.88949 -8.788679,8.249645 -4.457846,14.134065 1.637128,2.22441 0.935848,2.77418 -3.123106,2.44837 -1.920956,-0.1542 -3.627618,-0.062 -3.792583,0.20494 -0.520796,0.84267 -3.180027,0.52306 -5.029296,-0.60446 z m 6.437696,-3.93254 c 0,-3.63331 -0.352629,-3.78639 -1.439496,-0.62491 -0.467292,1.35926 -0.516492,2.3242 -0.153123,3.00316 1.005695,1.87916 1.592619,1.00271 1.592619,-2.37825 z m -1.095778,-5.11363 c 0,-0.15067 -0.123275,-0.27395 -0.273944,-0.27395 -0.15067,0 -0.273945,0.12328 -0.273945,0.27395 0,0.15067 0.123275,0.27394 0.273945,0.27394 0.150669,0 0.273944,-0.12327 0.273944,-0.27394 z m -1.95547,-9.649315 c -0.207059,-0.33503 -0.120862,-0.76712 0.19155,-0.9602 0.312412,-0.19308 0.428067,-1.08319 0.25701,-1.97802 -0.272574,-1.42587 -0.363198,-1.49341 -0.733265,-0.54649 -0.630095,1.6123 -0.581023,4.09386 0.08095,4.09386 0.319123,0 0.410811,-0.27412 0.203751,-0.60915 z m 3.599137,-8.97891 c 0,-0.15067 -0.123275,-0.27395 -0.273944,-0.27395 -0.15067,0 -0.273945,0.12328 -0.273945,0.27395 0,0.15067 0.123275,0.27394 0.273945,0.27394 0.150669,0 0.273944,-0.12327 0.273944,-0.27394 z m 32.87334,-0.54789 c 0,-0.15067 -0.123275,-0.27394 -0.273944,-0.27394 -0.15067,0 -0.273945,0.12327 -0.273945,0.27394 0,0.15067 0.123275,0.27394 0.273945,0.27394 0.150669,0 0.273944,-0.12327 0.273944,-0.27394 z m -34.699636,-1.18709 c -0.200893,-0.2009 -0.36526,-0.0365 -0.36526,0.36526 0,0.40178 0.164367,0.56615 0.36526,0.36526 0.200892,-0.2009 0.200892,-0.52963 0,-0.73052 z m 34.699636,0.0913 c 0,-0.15067 -0.123275,-0.27394 -0.273944,-0.27394 -0.15067,0 -0.273945,0.12327 -0.273945,0.27394 0,0.15067 0.123275,0.27395 0.273945,0.27395 0.150669,0 0.273944,-0.12328 0.273944,-0.27395 z m 1.095778,-0.54789 c 0,-0.15067 -0.123275,-0.27394 -0.273945,-0.27394 -0.150669,0 -0.273944,0.12327 -0.273944,0.27394 0,0.15067 0.123275,0.27395 0.273944,0.27395 0.15067,0 0.273945,-0.12328 0.273945,-0.27395 z m -39.448008,-2.19155 c 0,-0.15067 -0.123275,-0.27395 -0.273945,-0.27395 -0.150669,0 -0.273944,0.12328 -0.273944,0.27395 0,0.15067 0.123275,0.27394 0.273944,0.27394 0.15067,0 0.273945,-0.12327 0.273945,-0.27394 z m 12.810498,-0.57635 c 0.213178,-0.55553 0.106259,-0.7143 -0.308434,-0.45801 -0.440107,0.272 -0.512225,0.0707 -0.235209,-0.6564 0.288158,-0.75639 0.232748,-0.88334 -0.198798,-0.45544 -0.329071,0.32628 -0.440575,1.00429 -0.247787,1.50669 0.433557,1.12983 0.577387,1.13901 0.990228,0.0632 z m -11.71472,0.0285 c 0,-0.15067 -0.123275,-0.27395 -0.273944,-0.27395 -0.15067,0 -0.273945,0.12328 -0.273945,0.27395 0,0.15067 0.123275,0.27394 0.273945,0.27394 0.150669,0 0.273944,-0.12327 0.273944,-0.27394 z m 31.047044,-1.73498 c -0.200893,-0.2009 -0.36526,-0.0365 -0.36526,0.36526 0,0.40178 0.164367,0.56615 0.36526,0.36525 0.20089,-0.20089 0.20089,-0.52962 0,-0.73051 z m 4.565741,0.6392 c 0,-0.15067 -0.123275,-0.27394 -0.273944,-0.27394 -0.15067,0 -0.273945,0.12327 -0.273945,0.27394 0,0.15067 0.123275,0.27394 0.273945,0.27394 0.150669,0 0.273944,-0.12327 0.273944,-0.27394 z m -10.409891,-1.36978 c 0,-1.06794 -0.581129,-1.4278 -1.240657,-0.76827 -0.438922,0.43892 0.135537,1.86405 0.751386,1.86405 0.269099,0 0.489271,-0.4931 0.489271,-1.09578 z m 18.080337,0.82183 c 0,-0.15067 -0.123275,-0.27394 -0.273944,-0.27394 -0.15067,0 -0.273945,0.12327 -0.273945,0.27394 0,0.15067 0.123275,0.27395 0.273945,0.27395 0.150669,0 0.273944,-0.12328 0.273944,-0.27395 z M 83.905528,110.02994 c -0.527921,-0.33412 0.04666,-0.49384 1.776523,-0.49384 1.406248,0 2.696493,0.22601 2.86721,0.50223 0.400578,0.64815 -3.617852,0.64088 -4.643733,-0.008 z m 3.428422,-1.4983 c 0.200894,-0.20089 0.529628,-0.20089 0.730522,0 0.200889,0.20089 0.03652,0.36526 -0.365261,0.36526 -0.401783,0 -0.566152,-0.16437 -0.365261,-0.36526 z m 91.16807,-14.721435 c -2.67731,-1.81928 -2.60643,-2.20666 0.14676,-0.80208 1.20536,0.61493 2.19156,1.35958 2.19156,1.6548 0,0.73041 -0.0184,0.72369 -2.33832,-0.85272 z M 60.852651,80.680615 c 0,-0.15067 0.123275,-0.27394 0.273944,-0.27394 0.15067,0 0.273945,0.12327 0.273945,0.27394 0,0.15067 -0.123275,0.27395 -0.273945,0.27395 -0.150669,0 -0.273944,-0.12328 -0.273944,-0.27395 z m 10.820808,-1.43321 c -0.527343,-0.29636 -0.958806,-0.80334 -0.958806,-1.1266 0,-0.37649 0.295396,-0.34259 0.821834,0.0943 1.126131,0.93461 1.036594,0.0674 -0.136973,-1.32658 -0.958805,-1.13892 -0.958805,-1.13892 0.410917,-0.049 0.753347,0.59947 1.400411,1.09257 1.43792,1.09578 0.03751,0.003 -0.08577,0.42098 -0.273944,0.92838 -0.25923,0.69898 -0.574491,0.79196 -1.300948,0.38369 z m 3.972195,0.33744 c 0,-0.15067 0.123275,-0.27395 0.273945,-0.27395 0.150669,0 0.273944,0.12328 0.273944,0.27395 0,0.15066 -0.123275,0.27394 -0.273944,0.27394 -0.15067,0 -0.273945,-0.12328 -0.273945,-0.27394 z m -15.340892,-0.54789 c 0,-0.15067 0.123275,-0.27395 0.273945,-0.27395 0.150669,0 0.273944,0.12328 0.273944,0.27395 0,0.15067 -0.123275,0.27394 -0.273944,0.27394 -0.15067,0 -0.273945,-0.12327 -0.273945,-0.27394 z m 1.095778,0 c 0,-0.15067 0.123275,-0.27395 0.273944,-0.27395 0.15067,0 0.273945,0.12328 0.273945,0.27395 0,0.15067 -0.123275,0.27394 -0.273945,0.27394 -0.150669,0 -0.273944,-0.12327 -0.273944,-0.27394 z m 13.149336,-0.54789 c 0,-0.15067 0.123275,-0.27395 0.273945,-0.27395 0.150669,0 0.273944,0.12328 0.273944,0.27395 0,0.15067 -0.123275,0.27394 -0.273944,0.27394 -0.15067,0 -0.273945,-0.12327 -0.273945,-0.27394 z m -14.245114,-1.64367 c 0,-0.15067 0.123275,-0.27394 0.273945,-0.27394 0.150669,0 0.273944,0.12327 0.273944,0.27394 0,0.15067 -0.123275,0.27394 -0.273944,0.27394 -0.15067,0 -0.273945,-0.12327 -0.273945,-0.27394 z m -0.913149,-1.18709 c 0.200893,-0.2009 0.529627,-0.2009 0.73052,0 0.200892,0.20089 0.03653,0.36526 -0.36526,0.36526 -0.401785,0 -0.566152,-0.16437 -0.36526,-0.36526 z m -5.11363,-1.00447 c 0,-0.15067 0.123275,-0.27394 0.273944,-0.27394 0.15067,0 0.273945,0.12327 0.273945,0.27394 0,0.15067 -0.123275,0.27395 -0.273945,0.27395 -0.150669,0 -0.273944,-0.12328 -0.273944,-0.27395 z m 4.383112,0 c 0,-0.15067 0.123275,-0.27394 0.273945,-0.27394 0.150669,0 0.273944,0.12327 0.273944,0.27394 0,0.15067 -0.123275,0.27395 -0.273944,0.27395 -0.15067,0 -0.273945,-0.12328 -0.273945,-0.27395 z m 4.280383,-0.10032 c 0.395507,-0.15827 0.868061,-0.13881 1.050121,0.0433 0.182058,0.18206 -0.141539,0.31156 -0.719105,0.28777 -0.638259,-0.0263 -0.768085,-0.15612 -0.331016,-0.33102 z m 4.485841,-2.09123 c 0,-0.15067 0.123275,-0.27395 0.273945,-0.27395 0.150669,0 0.273944,0.12328 0.273944,0.27395 0,0.15067 -0.123275,0.27394 -0.273944,0.27394 -0.15067,0 -0.273945,-0.12327 -0.273945,-0.27394 z m 16.984559,0 c 0,-0.15067 0.123275,-0.27395 0.273945,-0.27395 0.150669,0 0.273944,0.12328 0.273944,0.27395 0,0.15067 -0.123275,0.27394 -0.273944,0.27394 -0.15067,0 -0.273945,-0.12327 -0.273945,-0.27394 z m 2.191556,-3.28734 c 0.375134,-0.452 0.928612,-0.82183 1.229951,-0.82183 0.305628,0 0.246298,0.36339 -0.134173,0.82183 -0.375134,0.45201 -0.928611,0.82184 -1.22995,0.82184 -0.305627,0 -0.2463,-0.3634 0.134172,-0.82184 z m -20.417998,-1.43771 c 0.371652,-0.37443 0.813747,-0.54277 0.982435,-0.37409 0.168689,0.16869 -0.13539,0.47505 -0.675729,0.6808 -0.780851,0.29733 -0.843783,0.2344 -0.306706,-0.30671 z m 40.689884,-0.4799 c 0,-0.30134 0.36983,-0.54789 0.82184,-0.54789 0.452,0 0.82183,0.24655 0.82183,0.54789 0,0.30134 -0.36983,0.54789 -0.82183,0.54789 -0.45201,0 -0.82184,-0.24655 -0.82184,-0.54789 z m 24.92895,-1.09578 c -0.18624,-0.30134 0.0457,-0.54789 0.51556,-0.54789 0.46979,0 0.85417,0.24655 0.85417,0.54789 0,0.30134 -0.232,0.54789 -0.51556,0.54789 -0.28355,0 -0.66793,-0.24655 -0.85417,-0.54789 z m 5.91159,-1.64366 c -0.1886,-0.72122 -0.77974,-1.11751 -1.72935,-1.15934 -1.06349,-0.0468 -1.16982,-0.13345 -0.40446,-0.32943 0.83428,-0.21363 0.88812,-0.36099 0.27394,-0.74989 -0.59982,-0.37981 -0.54231,-0.48582 0.26713,-0.4924 1.14121,-0.009 3.07765,1.93419 3.07765,3.08883 0,1.14828 -1.16444,0.86772 -1.48491,-0.35777 z m -4.54186,0.27394 c 0,-0.15067 0.12327,-0.27394 0.27394,-0.27394 0.15067,0 0.27394,0.12327 0.27394,0.27394 0,0.15067 -0.12327,0.27395 -0.27394,0.27395 -0.15067,0 -0.27394,-0.12328 -0.27394,-0.27395 z m -4.38312,-1.35458 c 0,-0.7427 0.97366,-1.20389 1.32872,-0.62938 0.16976,0.27468 -0.0598,0.64079 -0.51003,0.81358 -0.45028,0.17278 -0.81869,0.0899 -0.81869,-0.1842 z m 7.45475,-4.17009 c -0.20476,-0.5336 -0.0823,-0.78408 0.31806,-0.65062 0.819,0.273 1.26994,1.51823 0.5498,1.51823 -0.29421,0 -0.68474,-0.39042 -0.86786,-0.86761 z m 11.17348,0.31973 c 0.45201,-0.29211 1.06838,-0.53111 1.36972,-0.53111 0.30134,0 0.17807,0.239 -0.27394,0.53111 -0.45201,0.29211 -1.06839,0.5311 -1.36973,0.5311 -0.30133,0 -0.17806,-0.23899 0.27395,-0.5311 z m 3.28733,0.27394 c 0,-0.15067 0.12328,-0.27394 0.27395,-0.27394 0.15067,0 0.27394,0.12327 0.27394,0.27394 0,0.15067 -0.12327,0.27394 -0.27394,0.27394 -0.15067,0 -0.27395,-0.12327 -0.27395,-0.27394 z m -25.56815,-2.83076 c 0.20089,-0.20089 0.52963,-0.20089 0.73052,0 0.20089,0.20089 0.0365,0.36526 -0.36526,0.36526 -0.40178,0 -0.56615,-0.16437 -0.36526,-0.36526 z"
         id="path849"
         sodipodi:nodetypes="ccssssssssssssssssscssssssssssssssssssscscssssscssssssscscssssssscscsssssssssssssssccsscsssssssscscsssscssssssssssscsscsssssccsssssssssscsssccsssssccssssssssssssssssssssssssssssssssssssssssssssssscsssssssssssssssssssssssssssssssssssssssssssssssssssssscsssscscccsssssscssssssscssssscssssssscssssscsssssssssssssssssscsscsssssssssssssssscssssssssssssssssssssssssscccssssssssssssssssssssssssssssssssssssssssssssssssssssssssssssssssssssssscssscssccssssssssscssscsccscsccssssssssssssssssssssssssssssssssssscssscssccssssssssssssssssssssssssssssssssscssssssssssssssssssssssssssssss" />
      <text
         xml:space="preserve"
         style="font-style:normal;font-weight:normal;font-size:19.374px;line-height:1.25;font-family:sans-serif;letter-spacing:0px;word-spacing:0px;opacity:0.996;fill:#3f347a;fill-opacity:1;stroke:none;stroke-width:0.484351"
         x="55.503387"
         y="136.4756"
         id="text853"><tspan
           sodipodi:role="line"
           id="tspan851"
           x="55.503387"
           y="136.4756"
           style="font-style:italic;font-variant:normal;font-weight:bold;font-stretch:normal;font-family:'IBM Plex Serif';-inkscape-font-specification:'IBM Plex Serif Bold Italic';fill:#3f347a;fill-opacity:1;stroke-width:0.484351">PG Reloaded</tspan></text>
    </g>
  </g>
</svg>
